<?xml version="1.0" standalone="no"?>
<!DOCTYPE svg PUBLIC "-//W3C//DTD SVG 20010904//EN"
 "http://www.w3.org/TR/2001/REC-SVG-20010904/DTD/svg10.dtd">
<svg version="1.0" xmlns="http://www.w3.org/2000/svg"
 width="512.000000pt" height="512.000000pt" viewBox="0 0 512.000000 512.000000"
 preserveAspectRatio="xMidYMid meet">
<metadata>
Created by potrace 1.11, written by Peter Selinger 2001-2013
</metadata>
<g transform="translate(0.000000,512.000000) scale(0.100000,-0.100000)"
fill="#000000" stroke="none">
<path d="M12 4818 l3 -292 1050 -147 c578 -81 1153 -162 1278 -180 l228 -33
217 31 c119 17 693 98 1275 180 l1057 148 0 292 0 293 -2555 0 -2555 0 2 -292z"/>
<path d="M10 3380 l0 -240 23 -4 c12 -3 40 -7 62 -10 120 -16 2286 -319 2373
-332 94 -15 113 -15 210 0 84 13 1907 268 2347 329 l90 12 3 239 2 239 -62 -7
c-35 -4 -200 -27 -368 -51 -168 -24 -712 -101 -1210 -171 l-906 -127 -904 127
c-1074 150 -1595 224 -1632 230 l-28 6 0 -240z"/>
<path d="M10 1985 c0 -129 4 -235 9 -235 4 0 46 -7 92 -15 46 -8 619 -89 1273
-180 l1189 -166 1187 166 c1115 155 1282 179 1338 191 l22 4 0 235 c0 217 -1
235 -17 235 -10 0 -238 -32 -508 -70 -1255 -178 -1991 -280 -2024 -280 -32 0
-492 64 -2026 280 -269 38 -500 70 -512 70 l-23 0 0 -235z"/>
<path d="M10 420 l0 -420 2555 0 2555 0 0 415 0 415 -22 0 c-13 0 -309 -41
-658 -90 -349 -49 -912 -129 -1250 -176 l-615 -87 -270 38 c-148 20 -441 61
-650 91 -209 30 -652 92 -985 139 -333 46 -617 87 -632 89 l-28 6 0 -420z"/>
</g>
</svg>
